<svg width="33" height="33" viewBox="0 0 33 33" fill="none" xmlns="http://www.w3.org/2000/svg">
<circle cx="16.5" cy="16.5" r="16.5" fill="#E5DCFF"/>
<path d="M20.2104 13.1031C20.2631 16.9756 17.1665 20.1576 13.294 20.2103C9.42143 20.2631 6.23939 17.1665 6.18669 13.2939C6.13398 9.42139 9.23057 6.23935 13.1031 6.18664C16.9756 6.13394 20.1577 9.23052 20.2104 13.1031ZM8.46723 13.2629C8.50279 15.8759 10.6499 17.9654 13.2629 17.9298C15.876 17.8942 17.9654 15.7471 17.9298 13.1341C17.8943 10.5211 15.7472 8.43162 13.1341 8.46719C10.5211 8.50275 8.43167 10.6499 8.46723 13.2629Z" fill="#702EFC"/>
<path d="M17.5053 17.6195L23.4994 23.6136" stroke="#702EFC" stroke-width="2.76279" stroke-linecap="round"/>
</svg>
