<svg width="33" height="33" viewBox="0 0 33 33" fill="none" xmlns="http://www.w3.org/2000/svg">
<circle cx="16.5" cy="16.5" r="16.5" fill="#E5DCFF"/>
<path d="M20.6248 14.025C20.6248 17.6701 17.6699 20.625 14.0248 20.625C10.3797 20.625 7.4248 17.6701 7.4248 14.025C7.4248 10.3799 10.3797 7.42499 14.0248 7.42499C17.6699 7.42499 20.6248 10.3799 20.6248 14.025ZM9.5714 14.025C9.5714 16.4845 11.5653 18.4784 14.0248 18.4784C16.4844 18.4784 18.4782 16.4845 18.4782 14.025C18.4782 11.5654 16.4844 9.57158 14.0248 9.57158C11.5653 9.57158 9.5714 11.5654 9.5714 14.025Z" fill="#882EFC"/>
<rect x="17.21" y="19.1818" width="2.475" height="9.39967" transform="rotate(-45 17.21 19.1818)" fill="#882EFC"/>
</svg>
