<svg width="26" height="25" viewBox="0 0 26 25" fill="none" xmlns="http://www.w3.org/2000/svg">
<path d="M14.25 8.75H11.75V6.25H14.25M14.25 18.75H11.75V11.25H14.25M13 0C11.3585 0 9.73303 0.323322 8.21646 0.951506C6.69989 1.57969 5.3219 2.50043 4.16117 3.66117C1.81696 6.00537 0.5 9.18479 0.5 12.5C0.5 15.8152 1.81696 18.9946 4.16117 21.3388C5.3219 22.4996 6.69989 23.4203 8.21646 24.0485C9.73303 24.6767 11.3585 25 13 25C16.3152 25 19.4946 23.683 21.8388 21.3388C24.183 18.9946 25.5 15.8152 25.5 12.5C25.5 10.8585 25.1767 9.23303 24.5485 7.71646C23.9203 6.19989 22.9996 4.8219 21.8388 3.66117C20.6781 2.50043 19.3001 1.57969 17.7835 0.951506C16.267 0.323322 14.6415 0 13 0Z" fill="#882EFC"/>
</svg>
