<svg width="40" height="40" viewBox="0 0 40 40" fill="none" xmlns="http://www.w3.org/2000/svg">
<circle cx="20" cy="20" r="20" fill="#E5DCFF"/>
<path d="M24.4973 15.8827C24.5612 20.5767 20.8078 24.4337 16.1138 24.4976C11.4198 24.5615 7.5628 20.808 7.49891 16.1141C7.43502 11.4201 11.1885 7.56305 15.8824 7.49916C20.5764 7.43527 24.4334 11.1887 24.4973 15.8827ZM10.2632 16.0764C10.3063 19.2437 12.9089 21.7764 16.0762 21.7333C19.2435 21.6902 21.7762 19.0876 21.733 15.9203C21.6899 12.753 19.0874 10.2203 15.9201 10.2635C12.7528 10.3066 10.2201 12.9091 10.2632 16.0764Z" fill="#882EFC"/>
<path d="M21.2186 21.3569L28.4843 28.6225" stroke="#882EFC" stroke-width="3" stroke-linecap="round"/>
</svg>
